<mxfile host="drawio-plugin" modified="2023-02-22T11:45:04.479Z" agent="5.0 (Windows NT 6.2; Win64; x64) AppleWebKit/537.36 (KHTML, like Gecko) Chrome/104.0.5112.102 Safari/537.36" etag="MGD1D36E7FktqCW6oA6C" version="20.5.3" type="embed"><diagram name="Page-1" id="pxsy46rSngA4rEvc3T4k"><mxGraphModel dx="2487" dy="-684" grid="1" gridSize="10" guides="1" tooltips="1" connect="0" arrows="1" fold="1" page="1" pageScale="1" pageWidth="850" pageHeight="1100" math="0" shadow="0"><root><mxCell id="0"/><mxCell id="1" parent="0"/><mxCell id="69" value="Users" style="swimlane;fontStyle=3;align=center;verticalAlign=top;childLayout=stackLayout;horizontal=1;startSize=26;horizontalStack=0;resizeParent=1;resizeParentMax=0;resizeLast=0;collapsible=1;marginBottom=0;" parent="1" vertex="1"><mxGeometry x="-425" y="1400" width="160" height="386" as="geometry"/></mxCell><mxCell id="70" value="- name: String" style="text;strokeColor=none;fillColor=none;align=left;verticalAlign=top;spacingLeft=4;spacingRight=4;overflow=hidden;rotatable=0;points=[[0,0.5],[1,0.5]];portConstraint=eastwest;" parent="69" vertex="1"><mxGeometry y="26" width="160" height="26" as="geometry"/></mxCell><mxCell id="73" value="- Id: String" style="text;html=1;strokeColor=none;fillColor=none;align=left;verticalAlign=middle;whiteSpace=wrap;rounded=0;" parent="69" vertex="1"><mxGeometry y="52" width="160" height="30" as="geometry"/></mxCell><mxCell id="74" value="- age : int" style="text;html=1;strokeColor=none;fillColor=none;align=left;verticalAlign=middle;whiteSpace=wrap;rounded=0;" parent="69" vertex="1"><mxGeometry y="82" width="160" height="30" as="geometry"/></mxCell><mxCell id="75" value="- gender : Gender" style="text;html=1;strokeColor=none;fillColor=none;align=left;verticalAlign=middle;whiteSpace=wrap;rounded=0;" parent="69" vertex="1"><mxGeometry y="112" width="160" height="30" as="geometry"/></mxCell><mxCell id="71" value="" style="line;strokeWidth=1;fillColor=none;align=left;verticalAlign=middle;spacingTop=-1;spacingLeft=3;spacingRight=3;rotatable=0;labelPosition=right;points=[];portConstraint=eastwest;strokeColor=inherit;" parent="69" vertex="1"><mxGeometry y="142" width="160" height="8" as="geometry"/></mxCell><mxCell id="72" value="+ getName()" style="text;strokeColor=none;fillColor=none;align=left;verticalAlign=top;spacingLeft=4;spacingRight=4;overflow=hidden;rotatable=0;points=[[0,0.5],[1,0.5]];portConstraint=eastwest;" parent="69" vertex="1"><mxGeometry y="150" width="160" height="26" as="geometry"/></mxCell><mxCell id="76" value="+ setName()" style="text;html=1;strokeColor=none;fillColor=none;align=left;verticalAlign=middle;whiteSpace=wrap;rounded=0;" parent="69" vertex="1"><mxGeometry y="176" width="160" height="30" as="geometry"/></mxCell><mxCell id="77" value="+ getId()" style="text;html=1;strokeColor=none;fillColor=none;align=left;verticalAlign=middle;whiteSpace=wrap;rounded=0;" parent="69" vertex="1"><mxGeometry y="206" width="160" height="30" as="geometry"/></mxCell><mxCell id="78" value="+ setId()" style="text;html=1;strokeColor=none;fillColor=none;align=left;verticalAlign=middle;whiteSpace=wrap;rounded=0;" parent="69" vertex="1"><mxGeometry y="236" width="160" height="30" as="geometry"/></mxCell><mxCell id="79" value="+ getAge()" style="text;html=1;strokeColor=none;fillColor=none;align=left;verticalAlign=middle;whiteSpace=wrap;rounded=0;" parent="69" vertex="1"><mxGeometry y="266" width="160" height="30" as="geometry"/></mxCell><mxCell id="80" value="+ setAge()" style="text;html=1;strokeColor=none;fillColor=none;align=left;verticalAlign=middle;whiteSpace=wrap;rounded=0;" parent="69" vertex="1"><mxGeometry y="296" width="160" height="30" as="geometry"/></mxCell><mxCell id="81" value="+ getGender()" style="text;html=1;strokeColor=none;fillColor=none;align=left;verticalAlign=middle;whiteSpace=wrap;rounded=0;" parent="69" vertex="1"><mxGeometry y="326" width="160" height="30" as="geometry"/></mxCell><mxCell id="82" value="+ setGender()" style="text;html=1;strokeColor=none;fillColor=none;align=left;verticalAlign=middle;whiteSpace=wrap;rounded=0;" parent="69" vertex="1"><mxGeometry y="356" width="160" height="30" as="geometry"/></mxCell><mxCell id="83" value="Staffs" style="swimlane;fontStyle=1;align=center;verticalAlign=top;childLayout=stackLayout;horizontal=1;startSize=26;horizontalStack=0;resizeParent=1;resizeParentMax=0;resizeLast=0;collapsible=1;marginBottom=0;" parent="1" vertex="1"><mxGeometry x="-790" y="1950" width="160" height="296" as="geometry"/></mxCell><mxCell id="84" value="- qualification: String" style="text;strokeColor=none;fillColor=none;align=left;verticalAlign=top;spacingLeft=4;spacingRight=4;overflow=hidden;rotatable=0;points=[[0,0.5],[1,0.5]];portConstraint=eastwest;" parent="83" vertex="1"><mxGeometry y="26" width="160" height="26" as="geometry"/></mxCell><mxCell id="87" value="- role: Role" style="text;html=1;strokeColor=none;fillColor=none;align=left;verticalAlign=middle;whiteSpace=wrap;rounded=0;" parent="83" vertex="1"><mxGeometry y="52" width="160" height="30" as="geometry"/></mxCell><mxCell id="88" value="- hired: Boolean" style="text;html=1;strokeColor=none;fillColor=none;align=left;verticalAlign=middle;whiteSpace=wrap;rounded=0;" parent="83" vertex="1"><mxGeometry y="82" width="160" height="30" as="geometry"/></mxCell><mxCell id="85" value="" style="line;strokeWidth=1;fillColor=none;align=left;verticalAlign=middle;spacingTop=-1;spacingLeft=3;spacingRight=3;rotatable=0;labelPosition=right;points=[];portConstraint=eastwest;strokeColor=inherit;" parent="83" vertex="1"><mxGeometry y="112" width="160" height="8" as="geometry"/></mxCell><mxCell id="86" value="- getQualification()" style="text;strokeColor=none;fillColor=none;align=left;verticalAlign=top;spacingLeft=4;spacingRight=4;overflow=hidden;rotatable=0;points=[[0,0.5],[1,0.5]];portConstraint=eastwest;" parent="83" vertex="1"><mxGeometry y="120" width="160" height="26" as="geometry"/></mxCell><mxCell id="89" value="- setQualification()" style="text;html=1;strokeColor=none;fillColor=none;align=left;verticalAlign=middle;whiteSpace=wrap;rounded=0;" parent="83" vertex="1"><mxGeometry y="146" width="160" height="30" as="geometry"/></mxCell><mxCell id="90" value="- getRole()" style="text;html=1;strokeColor=none;fillColor=none;align=left;verticalAlign=middle;whiteSpace=wrap;rounded=0;" parent="83" vertex="1"><mxGeometry y="176" width="160" height="30" as="geometry"/></mxCell><mxCell id="91" value="- setRole()" style="text;html=1;strokeColor=none;fillColor=none;align=left;verticalAlign=middle;whiteSpace=wrap;rounded=0;" parent="83" vertex="1"><mxGeometry y="206" width="160" height="30" as="geometry"/></mxCell><mxCell id="92" value="- isHired()" style="text;html=1;strokeColor=none;fillColor=none;align=left;verticalAlign=middle;whiteSpace=wrap;rounded=0;" parent="83" vertex="1"><mxGeometry y="236" width="160" height="30" as="geometry"/></mxCell><mxCell id="93" value="-setHired()" style="text;html=1;strokeColor=none;fillColor=none;align=left;verticalAlign=middle;whiteSpace=wrap;rounded=0;" parent="83" vertex="1"><mxGeometry y="266" width="160" height="30" as="geometry"/></mxCell><mxCell id="94" value="Applicant" style="swimlane;fontStyle=1;align=center;verticalAlign=top;childLayout=stackLayout;horizontal=1;startSize=26;horizontalStack=0;resizeParent=1;resizeParentMax=0;resizeLast=0;collapsible=1;marginBottom=0;" parent="1" vertex="1"><mxGeometry x="-430" y="1950" width="160" height="206" as="geometry"/></mxCell><mxCell id="95" value="- yearsOfEx[perince: int" style="text;strokeColor=none;fillColor=none;align=left;verticalAlign=top;spacingLeft=4;spacingRight=4;overflow=hidden;rotatable=0;points=[[0,0.5],[1,0.5]];portConstraint=eastwest;" parent="94" vertex="1"><mxGeometry y="26" width="160" height="26" as="geometry"/></mxCell><mxCell id="98" value="- qualification: String" style="text;html=1;strokeColor=none;fillColor=none;align=left;verticalAlign=middle;whiteSpace=wrap;rounded=0;" parent="94" vertex="1"><mxGeometry y="52" width="160" height="30" as="geometry"/></mxCell><mxCell id="96" value="" style="line;strokeWidth=1;fillColor=none;align=left;verticalAlign=middle;spacingTop=-1;spacingLeft=3;spacingRight=3;rotatable=0;labelPosition=right;points=[];portConstraint=eastwest;strokeColor=inherit;" parent="94" vertex="1"><mxGeometry y="82" width="160" height="8" as="geometry"/></mxCell><mxCell id="97" value="+ getYearsOfExperience()" style="text;strokeColor=none;fillColor=none;align=left;verticalAlign=top;spacingLeft=4;spacingRight=4;overflow=hidden;rotatable=0;points=[[0,0.5],[1,0.5]];portConstraint=eastwest;" parent="94" vertex="1"><mxGeometry y="90" width="160" height="26" as="geometry"/></mxCell><mxCell id="99" value="+ setYearsOfExperience()" style="text;html=1;strokeColor=none;fillColor=none;align=left;verticalAlign=middle;whiteSpace=wrap;rounded=0;" parent="94" vertex="1"><mxGeometry y="116" width="160" height="30" as="geometry"/></mxCell><mxCell id="100" value="- getQualification()" style="text;html=1;strokeColor=none;fillColor=none;align=left;verticalAlign=middle;whiteSpace=wrap;rounded=0;" parent="94" vertex="1"><mxGeometry y="146" width="160" height="30" as="geometry"/></mxCell><mxCell id="101" value="- setQualification()" style="text;html=1;strokeColor=none;fillColor=none;align=left;verticalAlign=middle;whiteSpace=wrap;rounded=0;" parent="94" vertex="1"><mxGeometry y="176" width="160" height="30" as="geometry"/></mxCell><mxCell id="102" value="Customer" style="swimlane;fontStyle=1;align=center;verticalAlign=top;childLayout=stackLayout;horizontal=1;startSize=26;horizontalStack=0;resizeParent=1;resizeParentMax=0;resizeLast=0;collapsible=1;marginBottom=0;" parent="1" vertex="1"><mxGeometry x="-70" y="1950" width="160" height="116" as="geometry"/></mxCell><mxCell id="103" value="- Money: double" style="text;strokeColor=none;fillColor=none;align=left;verticalAlign=top;spacingLeft=4;spacingRight=4;overflow=hidden;rotatable=0;points=[[0,0.5],[1,0.5]];portConstraint=eastwest;" parent="102" vertex="1"><mxGeometry y="26" width="160" height="26" as="geometry"/></mxCell><mxCell id="104" value="" style="line;strokeWidth=1;fillColor=none;align=left;verticalAlign=middle;spacingTop=-1;spacingLeft=3;spacingRight=3;rotatable=0;labelPosition=right;points=[];portConstraint=eastwest;strokeColor=inherit;" parent="102" vertex="1"><mxGeometry y="52" width="160" height="8" as="geometry"/></mxCell><mxCell id="105" value="+ getMoney()" style="text;strokeColor=none;fillColor=none;align=left;verticalAlign=top;spacingLeft=4;spacingRight=4;overflow=hidden;rotatable=0;points=[[0,0.5],[1,0.5]];portConstraint=eastwest;" parent="102" vertex="1"><mxGeometry y="60" width="160" height="26" as="geometry"/></mxCell><mxCell id="106" value="+ setMoney()" style="text;html=1;strokeColor=none;fillColor=none;align=left;verticalAlign=middle;whiteSpace=wrap;rounded=0;" parent="102" vertex="1"><mxGeometry y="86" width="160" height="30" as="geometry"/></mxCell><mxCell id="108" value="" style="endArrow=none;html=1;rounded=0;" parent="1" edge="1"><mxGeometry width="50" height="50" relative="1" as="geometry"><mxPoint x="-720" y="1880" as="sourcePoint"/><mxPoint y="1880" as="targetPoint"/></mxGeometry></mxCell><mxCell id="109" value="" style="endArrow=none;html=1;rounded=0;exitX=0.444;exitY=-0.003;exitDx=0;exitDy=0;exitPerimeter=0;" parent="1" source="83" edge="1"><mxGeometry width="50" height="50" relative="1" as="geometry"><mxPoint x="-720" y="1940" as="sourcePoint"/><mxPoint x="-720" y="1880" as="targetPoint"/></mxGeometry></mxCell><mxCell id="110" value="" style="endArrow=none;html=1;rounded=0;" parent="1" edge="1"><mxGeometry width="50" height="50" relative="1" as="geometry"><mxPoint x="-360" y="1950" as="sourcePoint"/><mxPoint x="-360" y="1880" as="targetPoint"/></mxGeometry></mxCell><mxCell id="111" value="" style="endArrow=none;html=1;rounded=0;exitX=0.444;exitY=-0.003;exitDx=0;exitDy=0;exitPerimeter=0;" parent="1" edge="1"><mxGeometry width="50" height="50" relative="1" as="geometry"><mxPoint x="0.03999999999996362" y="1950.0020000000002" as="sourcePoint"/><mxPoint x="-1" y="1880.89" as="targetPoint"/></mxGeometry></mxCell><mxCell id="112" value="Extends" style="endArrow=block;endSize=16;endFill=0;html=1;rounded=0;" parent="1" edge="1"><mxGeometry width="160" relative="1" as="geometry"><mxPoint x="-360" y="1886" as="sourcePoint"/><mxPoint x="-360" y="1786" as="targetPoint"/><Array as="points"><mxPoint x="-360" y="1836"/></Array></mxGeometry></mxCell><mxCell id="128" value="«interface»&lt;br&gt;&lt;b&gt;ManagerService&lt;/b&gt;" style="html=1;" parent="1" vertex="1"><mxGeometry x="-1330" y="1940" width="110" height="50" as="geometry"/></mxCell><mxCell id="136" value="ManagerController" style="swimlane;fontStyle=1;childLayout=stackLayout;horizontal=1;startSize=26;fillColor=none;horizontalStack=0;resizeParent=1;resizeParentMax=0;resizeLast=0;collapsible=1;marginBottom=0;" parent="1" vertex="1"><mxGeometry x="-1220" y="2096" width="140" height="194" as="geometry"/></mxCell><mxCell id="137" value="+ checkRequirement()" style="text;strokeColor=none;fillColor=none;align=left;verticalAlign=top;spacingLeft=4;spacingRight=4;overflow=hidden;rotatable=0;points=[[0,0.5],[1,0.5]];portConstraint=eastwest;" parent="136" vertex="1"><mxGeometry y="26" width="140" height="26" as="geometry"/></mxCell><mxCell id="138" value="+ hireCashier()" style="text;strokeColor=none;fillColor=none;align=left;verticalAlign=top;spacingLeft=4;spacingRight=4;overflow=hidden;rotatable=0;points=[[0,0.5],[1,0.5]];portConstraint=eastwest;" parent="136" vertex="1"><mxGeometry y="52" width="140" height="26" as="geometry"/></mxCell><mxCell id="139" value="+ sackCahier()" style="text;strokeColor=none;fillColor=none;align=left;verticalAlign=top;spacingLeft=4;spacingRight=4;overflow=hidden;rotatable=0;points=[[0,0.5],[1,0.5]];portConstraint=eastwest;" parent="136" vertex="1"><mxGeometry y="78" width="140" height="26" as="geometry"/></mxCell><mxCell id="140" value="+ checkCashierList()" style="text;html=1;strokeColor=none;fillColor=none;align=left;verticalAlign=middle;whiteSpace=wrap;rounded=0;" vertex="1" parent="136"><mxGeometry y="104" width="140" height="30" as="geometry"/></mxCell><mxCell id="141" value="+ checkRecord()" style="text;html=1;strokeColor=none;fillColor=none;align=left;verticalAlign=middle;whiteSpace=wrap;rounded=0;" vertex="1" parent="136"><mxGeometry y="134" width="140" height="30" as="geometry"/></mxCell><mxCell id="142" value="+storeAccountDetails()" style="text;html=1;strokeColor=none;fillColor=none;align=left;verticalAlign=middle;whiteSpace=wrap;rounded=0;" vertex="1" parent="136"><mxGeometry y="164" width="140" height="30" as="geometry"/></mxCell><mxCell id="143" value="ManagerServiceImpl" style="swimlane;fontStyle=1;childLayout=stackLayout;horizontal=1;startSize=26;fillColor=none;horizontalStack=0;resizeParent=1;resizeParentMax=0;resizeLast=0;collapsible=1;marginBottom=0;" vertex="1" parent="1"><mxGeometry x="-1470" y="2096" width="140" height="104" as="geometry"/></mxCell><mxCell id="144" value="+ checkRequirement()" style="text;strokeColor=none;fillColor=none;align=left;verticalAlign=top;spacingLeft=4;spacingRight=4;overflow=hidden;rotatable=0;points=[[0,0.5],[1,0.5]];portConstraint=eastwest;" vertex="1" parent="143"><mxGeometry y="26" width="140" height="26" as="geometry"/></mxCell><mxCell id="145" value="+ hireCashier()" style="text;strokeColor=none;fillColor=none;align=left;verticalAlign=top;spacingLeft=4;spacingRight=4;overflow=hidden;rotatable=0;points=[[0,0.5],[1,0.5]];portConstraint=eastwest;" vertex="1" parent="143"><mxGeometry y="52" width="140" height="26" as="geometry"/></mxCell><mxCell id="146" value="+ sackCahier()" style="text;strokeColor=none;fillColor=none;align=left;verticalAlign=top;spacingLeft=4;spacingRight=4;overflow=hidden;rotatable=0;points=[[0,0.5],[1,0.5]];portConstraint=eastwest;" vertex="1" parent="143"><mxGeometry y="78" width="140" height="26" as="geometry"/></mxCell><mxCell id="152" value="" style="endArrow=block;dashed=1;endFill=0;endSize=12;html=1;rounded=0;entryX=0.336;entryY=1.06;entryDx=0;entryDy=0;entryPerimeter=0;exitX=0.543;exitY=0.01;exitDx=0;exitDy=0;exitPerimeter=0;" edge="1" parent="1" source="143" target="128"><mxGeometry width="160" relative="1" as="geometry"><mxPoint x="-1390" y="2090" as="sourcePoint"/><mxPoint x="-1090" y="2090" as="targetPoint"/></mxGeometry></mxCell><mxCell id="153" value="" style="endArrow=block;dashed=1;endFill=0;endSize=12;html=1;rounded=0;exitX=0.436;exitY=-0.021;exitDx=0;exitDy=0;exitPerimeter=0;entryX=0.636;entryY=1;entryDx=0;entryDy=0;entryPerimeter=0;" edge="1" parent="1" source="136" target="128"><mxGeometry width="160" relative="1" as="geometry"><mxPoint x="-1390" y="2109.952" as="sourcePoint"/><mxPoint x="-1283.04" y="2003" as="targetPoint"/></mxGeometry></mxCell><mxCell id="154" value="" style="endArrow=none;html=1;rounded=0;exitX=1.007;exitY=-0.154;exitDx=0;exitDy=0;exitPerimeter=0;entryX=-0.012;entryY=0.567;entryDx=0;entryDy=0;entryPerimeter=0;" edge="1" parent="1" source="138" target="90"><mxGeometry width="50" height="50" relative="1" as="geometry"><mxPoint x="-1190" y="2110" as="sourcePoint"/><mxPoint x="-1140" y="2060" as="targetPoint"/></mxGeometry></mxCell><mxCell id="197" value="«interface»&lt;br&gt;&lt;b&gt;ManagerService&lt;/b&gt;" style="html=1;" vertex="1" parent="1"><mxGeometry x="-1380" y="2390" width="110" height="50" as="geometry"/></mxCell><mxCell id="198" value="ManagerController" style="swimlane;fontStyle=1;childLayout=stackLayout;horizontal=1;startSize=26;fillColor=none;horizontalStack=0;resizeParent=1;resizeParentMax=0;resizeLast=0;collapsible=1;marginBottom=0;" vertex="1" parent="1"><mxGeometry x="-1270" y="2546" width="140" height="194" as="geometry"/></mxCell><mxCell id="199" value="+ checkRequirement()" style="text;strokeColor=none;fillColor=none;align=left;verticalAlign=top;spacingLeft=4;spacingRight=4;overflow=hidden;rotatable=0;points=[[0,0.5],[1,0.5]];portConstraint=eastwest;" vertex="1" parent="198"><mxGeometry y="26" width="140" height="26" as="geometry"/></mxCell><mxCell id="200" value="+ hireCashier()" style="text;strokeColor=none;fillColor=none;align=left;verticalAlign=top;spacingLeft=4;spacingRight=4;overflow=hidden;rotatable=0;points=[[0,0.5],[1,0.5]];portConstraint=eastwest;" vertex="1" parent="198"><mxGeometry y="52" width="140" height="26" as="geometry"/></mxCell><mxCell id="201" value="+ sackCahier()" style="text;strokeColor=none;fillColor=none;align=left;verticalAlign=top;spacingLeft=4;spacingRight=4;overflow=hidden;rotatable=0;points=[[0,0.5],[1,0.5]];portConstraint=eastwest;" vertex="1" parent="198"><mxGeometry y="78" width="140" height="26" as="geometry"/></mxCell><mxCell id="202" value="+ checkCashierList()" style="text;html=1;strokeColor=none;fillColor=none;align=left;verticalAlign=middle;whiteSpace=wrap;rounded=0;" vertex="1" parent="198"><mxGeometry y="104" width="140" height="30" as="geometry"/></mxCell><mxCell id="203" value="+ checkRecord()" style="text;html=1;strokeColor=none;fillColor=none;align=left;verticalAlign=middle;whiteSpace=wrap;rounded=0;" vertex="1" parent="198"><mxGeometry y="134" width="140" height="30" as="geometry"/></mxCell><mxCell id="204" value="+storeAccountDetails()" style="text;html=1;strokeColor=none;fillColor=none;align=left;verticalAlign=middle;whiteSpace=wrap;rounded=0;" vertex="1" parent="198"><mxGeometry y="164" width="140" height="30" as="geometry"/></mxCell><mxCell id="205" value="ManagerServiceImpl" style="swimlane;fontStyle=1;childLayout=stackLayout;horizontal=1;startSize=26;fillColor=none;horizontalStack=0;resizeParent=1;resizeParentMax=0;resizeLast=0;collapsible=1;marginBottom=0;" vertex="1" parent="1"><mxGeometry x="-1520" y="2546" width="140" height="104" as="geometry"/></mxCell><mxCell id="206" value="+ checkRequirement()" style="text;strokeColor=none;fillColor=none;align=left;verticalAlign=top;spacingLeft=4;spacingRight=4;overflow=hidden;rotatable=0;points=[[0,0.5],[1,0.5]];portConstraint=eastwest;" vertex="1" parent="205"><mxGeometry y="26" width="140" height="26" as="geometry"/></mxCell><mxCell id="207" value="+ hireCashier()" style="text;strokeColor=none;fillColor=none;align=left;verticalAlign=top;spacingLeft=4;spacingRight=4;overflow=hidden;rotatable=0;points=[[0,0.5],[1,0.5]];portConstraint=eastwest;" vertex="1" parent="205"><mxGeometry y="52" width="140" height="26" as="geometry"/></mxCell><mxCell id="208" value="+ sackCahier()" style="text;strokeColor=none;fillColor=none;align=left;verticalAlign=top;spacingLeft=4;spacingRight=4;overflow=hidden;rotatable=0;points=[[0,0.5],[1,0.5]];portConstraint=eastwest;" vertex="1" parent="205"><mxGeometry y="78" width="140" height="26" as="geometry"/></mxCell><mxCell id="209" value="" style="endArrow=block;dashed=1;endFill=0;endSize=12;html=1;rounded=0;entryX=0.336;entryY=1.06;entryDx=0;entryDy=0;entryPerimeter=0;exitX=0.543;exitY=0.01;exitDx=0;exitDy=0;exitPerimeter=0;" edge="1" source="205" target="197" parent="1"><mxGeometry width="160" relative="1" as="geometry"><mxPoint x="-1440" y="2540" as="sourcePoint"/><mxPoint x="-1140" y="2540" as="targetPoint"/></mxGeometry></mxCell><mxCell id="210" value="" style="endArrow=block;dashed=1;endFill=0;endSize=12;html=1;rounded=0;exitX=0.436;exitY=-0.021;exitDx=0;exitDy=0;exitPerimeter=0;entryX=0.636;entryY=1;entryDx=0;entryDy=0;entryPerimeter=0;" edge="1" source="198" target="197" parent="1"><mxGeometry width="160" relative="1" as="geometry"><mxPoint x="-1440" y="2559.952" as="sourcePoint"/><mxPoint x="-1333.04" y="2453" as="targetPoint"/></mxGeometry></mxCell></root></mxGraphModel></diagram></mxfile>